<?xml version="1.0" standalone="no"?>
<!DOCTYPE svg PUBLIC "-//W3C//DTD SVG 20010904//EN"
 "http://www.w3.org/TR/2001/REC-SVG-20010904/DTD/svg10.dtd">
<svg version="1.0" xmlns="http://www.w3.org/2000/svg"
 width="512.000000pt" height="512.000000pt" viewBox="0 0 512.000000 512.000000"
 preserveAspectRatio="xMidYMid meet">
<metadata>
Created by potrace 1.11, written by Peter Selinger 2001-2013
</metadata>
<g transform="translate(0.000000,512.000000) scale(0.100000,-0.100000)"
fill="#000000" stroke="none">
<path d="M1309 3430 c-105 -34 -211 -119 -255 -205 -74 -144 -74 -317 1 -463
23 -44 124 -143 166 -163 105 -49 111 -51 229 -50 113 0 119 1 194 36 114 53
186 133 238 265 26 65 25 226 -1 298 -30 80 -65 135 -121 185 -59 53 -91 71
-175 98 -77 24 -199 24 -276 -1z m260 -150 c92 -47 140 -109 166 -216 16 -67
16 -74 -1 -140 -19 -76 -32 -102 -78 -152 -56 -61 -99 -77 -206 -77 -90 0 -98
2 -145 32 -98 63 -145 151 -145 273 0 125 56 221 160 276 61 31 191 34 249 4z"/>
<path d="M229 3426 c-5 -6 -9 -180 -9 -432 0 -351 2 -424 14 -433 9 -7 38 -11
73 -9 l58 3 5 370 5 370 123 3 c140 3 189 -7 235 -48 30 -27 32 -33 32 -95 0
-67 0 -68 -43 -105 -45 -41 -115 -70 -166 -70 -58 0 -62 -12 -21 -74 21 -31
45 -56 54 -57 48 -3 90 5 135 27 61 29 97 60 134 117 25 39 27 50 27 147 -1
93 -3 110 -25 145 -31 52 -75 92 -130 118 -41 19 -67 22 -268 27 -135 3 -227
1 -233 -4z"/>
<path d="M1970 3421 c-6 -12 11 -79 37 -141 4 -8 12 -33 19 -55 6 -22 40 -119
74 -215 33 -96 66 -191 71 -210 6 -19 13 -42 16 -50 3 -8 18 -49 33 -91 35
-103 41 -109 106 -109 57 0 73 13 89 70 3 14 10 34 15 45 5 11 41 117 80 235
63 191 90 254 103 239 6 -6 87 -236 98 -279 6 -19 13 -42 16 -50 3 -8 25 -69
47 -135 l41 -120 65 -3 66 -3 16 38 c9 21 21 54 27 73 5 19 37 114 71 210 34
96 66 191 71 210 6 19 14 44 19 55 5 11 19 49 30 85 12 36 25 74 30 85 11 25
30 96 30 113 0 13 -127 18 -145 4 -6 -4 -21 -41 -34 -82 -12 -41 -26 -84 -31
-95 -4 -11 -24 -74 -45 -140 -52 -168 -86 -267 -95 -285 -7 -12 -11 -9 -19 13
-6 16 -11 34 -11 42 0 8 -4 17 -10 20 -5 3 -10 15 -10 25 0 11 -6 34 -14 52
-8 18 -44 125 -81 238 -37 113 -71 211 -77 218 -6 7 -33 12 -64 12 -54 0 -54
0 -73 -42 -15 -32 -156 -461 -187 -567 -4 -11 -8 -10 -24 4 -11 10 -20 23 -20
29 0 11 -37 136 -50 171 -5 11 -25 74 -45 140 -84 272 -72 253 -157 257 -52 2
-72 -1 -78 -11z"/>
<path d="M4206 3422 c-9 -16 -8 -854 2 -864 5 -5 38 -8 73 -6 l64 3 5 363 c4
307 7 364 20 373 9 6 63 9 135 6 152 -5 203 -25 236 -93 25 -53 20 -99 -16
-143 -39 -45 -83 -61 -173 -61 -45 0 -84 -4 -87 -10 -5 -8 90 -159 130 -207 6
-6 26 -35 45 -63 19 -28 54 -78 77 -111 l43 -59 79 0 c44 0 83 4 86 10 3 5
-18 42 -47 82 -30 40 -78 108 -107 150 -59 86 -59 94 5 124 120 57 172 229
108 359 -29 61 -50 83 -119 122 l-50 28 -251 3 c-154 2 -254 0 -258 -6z"/>
<path d="M1760 2375 c-102 -29 -176 -92 -226 -191 -27 -54 -29 -68 -29 -164 0
-92 4 -112 27 -160 96 -204 350 -273 539 -147 72 47 77 63 38 103 -18 19 -37
34 -43 34 -5 0 -23 -11 -40 -24 -57 -43 -93 -56 -156 -56 -168 0 -278 164
-225 334 32 103 117 166 221 166 59 0 88 -10 153 -54 l45 -29 33 38 c39 45 40
55 11 82 -78 71 -232 102 -348 68z"/>
<path d="M3109 2375 c-122 -34 -216 -128 -253 -257 -37 -129 -1 -263 102 -370
20 -21 41 -38 47 -38 6 0 16 -5 22 -11 25 -25 118 -49 188 -49 151 0 272 78
337 220 66 140 33 309 -79 418 -24 23 -58 49 -76 59 -81 42 -197 53 -288 28z
m181 -116 c144 -43 207 -252 117 -386 -106 -159 -343 -129 -412 51 -26 67 -17
177 18 233 60 95 168 134 277 102z"/>
<path d="M4575 2376 c-94 -27 -139 -73 -157 -159 -26 -129 37 -201 222 -251
91 -25 140 -47 151 -67 18 -34 10 -79 -17 -104 -23 -21 -37 -25 -95 -25 -69 0
-120 17 -185 60 l-32 21 -31 -27 c-49 -41 -43 -72 22 -109 229 -130 477 -52
477 151 0 113 -62 168 -250 219 -116 32 -152 67 -136 131 9 34 83 68 129 59
50 -10 100 -28 117 -41 36 -28 57 -26 84 9 39 51 34 67 -34 102 -78 40 -189
53 -265 31z"/>
<path d="M229 2369 c-5 -3 -8 -151 -7 -355 l3 -349 55 0 55 0 2 120 c4 181
-12 164 160 167 97 2 148 7 150 14 2 6 -11 31 -30 55 l-33 44 -114 3 c-76 2
-117 7 -122 15 -13 20 -9 152 4 165 8 8 66 12 195 12 170 0 183 1 193 19 14
27 13 81 -3 86 -18 7 -497 11 -508 4z"/>
<path d="M1042 2368 c-7 -7 -12 -15 -12 -19 0 -4 -14 -38 -30 -76 -69 -154
-91 -204 -106 -240 -8 -18 -21 -48 -28 -65 -138 -310 -138 -308 -64 -308 24 0
48 4 54 8 12 8 33 53 99 212 26 63 57 135 67 160 33 74 36 84 43 105 3 11 14
31 24 45 l19 24 17 -42 c10 -23 26 -59 36 -79 11 -21 19 -41 19 -45 0 -4 13
-36 29 -70 15 -35 38 -88 50 -118 33 -82 37 -91 63 -145 l24 -50 54 0 c65 0
72 13 42 77 -53 115 -82 179 -82 185 0 3 -13 35 -30 70 -16 34 -30 69 -30 76
0 7 -4 17 -9 23 -5 5 -33 65 -62 134 -29 69 -57 131 -62 138 -12 16 -109 16
-125 0z"/>
<path d="M2247 2372 c-22 -4 -32 -43 -20 -79 10 -28 11 -28 104 -31 75 -2 97
-6 107 -19 9 -13 12 -84 12 -292 -1 -154 3 -278 8 -283 5 -5 31 -8 58 -6 l49
3 3 285 c1 178 6 288 13 295 5 5 56 12 112 15 l102 5 3 53 c3 44 0 52 -15 52
-210 3 -524 4 -536 2z"/>
<path d="M3739 2368 c-18 -7 -19 -21 -19 -346 0 -249 3 -341 12 -350 7 -7 31
-12 55 -12 32 0 45 5 53 19 6 12 10 124 10 295 l0 276 26 6 c14 4 73 4 130 2
98 -4 107 -7 132 -32 23 -22 27 -35 27 -80 0 -43 -5 -60 -24 -80 -24 -26 -93
-46 -156 -46 -48 0 -46 -23 8 -97 23 -32 65 -92 92 -132 84 -125 94 -133 162
-129 72 4 72 13 -1 112 -63 86 -96 139 -96 155 0 6 10 15 23 20 129 49 170
249 71 352 -56 58 -94 67 -300 71 -102 2 -194 0 -205 -4z"/>
</g>
</svg>
